<svg viewBox="0 0 640 400" xmlns="http://www.w3.org/2000/svg" font-family="-apple-system,Segoe UI,Helvetica,Arial,sans-serif">
<rect width="640" height="400" fill="white"/>
<line x1="64" y1="183.33353252979978" x2="530" y2="183.33353252979978" stroke="#e6e8eb"/><text x="56" y="187.33353252979978" text-anchor="end" font-size="11" fill="#5b6470">10^4</text>
<line x1="64" y1="20" x2="64" y2="356" stroke="#1a1a1a"/>
<line x1="64" y1="356" x2="530" y2="356" stroke="#1a1a1a"/>
<path d="M 64.0 20.3 L 73.5 22.5 L 83.0 24.4 L 92.5 26.7 L 102.0 29.3 L 111.6 30.8 L 121.1 32.6 L 130.6 34.6 L 140.1 36.6 L 149.6 38.1 L 159.1 39.9 L 168.6 41.9 L 178.1 45.1 L 187.6 46.9 L 197.1 49.4 L 206.7 52.6 L 216.2 54.6 L 225.7 56.8 L 235.2 59.1 L 244.7 62.1 L 254.2 64.1 L 263.7 67.1 L 273.2 69.5 L 282.7 70.8 L 292.2 72.8 L 301.8 74.8 L 311.3 76.6 L 320.8 80.9 L 330.3 84.3 L 339.8 86.2 L 349.3 88.9 L 358.8 91.6 L 368.3 93.7 L 377.8 96.0 L 387.3 101.0 L 396.9 102.9 L 406.4 105.5 L 415.9 108.7 L 425.4 109.9 L 434.9 112.0 L 444.4 115.3 L 453.9 118.7 L 463.4 121.5 L 472.9 124.9 L 482.4 130.1 L 492.0 135.3 L 501.5 139.6 L 511.0 142.8 L 520.5 146.5 L 530.0 148.4" fill="none" stroke="#C44E52" stroke-width="2.4" stroke-dasharray="none"/><path d="M 64.0 108.9 L 73.5 112.8 L 83.0 114.5 L 92.5 117.4 L 102.0 119.5 L 111.6 121.9 L 121.1 123.8 L 130.6 127.7 L 140.1 130.0 L 149.6 131.4 L 159.1 134.9 L 168.6 138.4 L 178.1 142.3 L 187.6 146.7 L 197.1 149.6 L 206.7 153.3 L 216.2 157.2 L 225.7 160.4 L 235.2 164.6 L 244.7 166.5 L 254.2 169.7 L 263.7 171.5 L 273.2 176.5 L 282.7 180.1 L 292.2 182.9 L 301.8 186.8 L 311.3 193.0 L 320.8 196.9 L 330.3 201.3 L 339.8 205.3 L 349.3 207.7 L 358.8 212.4 L 368.3 216.2 L 377.8 220.8 L 387.3 223.4 L 396.9 226.6 L 406.4 227.8 L 415.9 233.1 L 425.4 236.8 L 434.9 240.8 L 444.4 247.3 L 453.9 251.3 L 463.4 254.3 L 472.9 258.5 L 482.4 265.1 L 492.0 267.9 L 501.5 270.8 L 511.0 275.0 L 520.5 279.5 L 530.0 286.4" fill="none" stroke="#4C72B0" stroke-width="2.4" stroke-dasharray="6 4"/><path d="M 64.0 147.1 L 73.5 149.6 L 83.0 152.2 L 92.5 154.8 L 102.0 157.8 L 111.6 161.0 L 121.1 164.4 L 130.6 168.6 L 140.1 172.3 L 149.6 176.0 L 159.1 179.4 L 168.6 183.9 L 178.1 186.7 L 187.6 190.4 L 197.1 192.9 L 206.7 196.9 L 216.2 200.1 L 225.7 203.2 L 235.2 206.7 L 244.7 209.6 L 254.2 214.2 L 263.7 216.7 L 273.2 220.4 L 282.7 222.8 L 292.2 224.8 L 301.8 229.9 L 311.3 232.3 L 320.8 234.5 L 330.3 238.8 L 339.8 245.6 L 349.3 249.1 L 358.8 252.5 L 368.3 255.7 L 377.8 259.7 L 387.3 266.7 L 396.9 272.2 L 406.4 277.1 L 415.9 280.0 L 425.4 282.0 L 434.9 287.6 L 444.4 290.8 L 453.9 293.2 L 463.4 297.6 L 472.9 302.3 L 482.4 307.7 L 492.0 317.6 L 501.5 322.5 L 511.0 327.7 L 520.5 330.8 L 530.0 336.0" fill="none" stroke="#55A868" stroke-width="2.4" stroke-dasharray="2 3"/><path d="M 64.0 106.7 L 73.5 110.0 L 83.0 112.6 L 92.5 115.7 L 102.0 117.8 L 111.6 120.8 L 121.1 123.7 L 130.6 126.1 L 140.1 128.6 L 149.6 132.2 L 159.1 134.5 L 168.6 137.2 L 178.1 139.5 L 187.6 142.7 L 197.1 145.3 L 206.7 148.0 L 216.2 153.7 L 225.7 156.9 L 235.2 159.8 L 244.7 163.6 L 254.2 166.0 L 263.7 167.9 L 273.2 171.8 L 282.7 174.4 L 292.2 178.1 L 301.8 183.5 L 311.3 185.5 L 320.8 188.8 L 330.3 192.6 L 339.8 195.6 L 349.3 198.9 L 358.8 202.1 L 368.3 205.3 L 377.8 209.1 L 387.3 216.4 L 396.9 220.3 L 406.4 225.4 L 415.9 232.4 L 425.4 237.8 L 434.9 241.2 L 444.4 245.6 L 453.9 248.4 L 463.4 251.9 L 472.9 258.2 L 482.4 264.1 L 492.0 269.7 L 501.5 274.3 L 511.0 279.2 L 520.5 284.6 L 530.0 291.3" fill="none" stroke="#8172B3" stroke-width="2.4" stroke-dasharray="1 4"/><path d="M 64.0 20.0 L 73.5 21.7 L 83.0 23.6 L 92.5 25.3 L 102.0 26.6 L 111.6 28.3 L 121.1 30.9 L 130.6 32.6 L 140.1 34.5 L 149.6 36.1 L 159.1 38.2 L 168.6 39.9 L 178.1 41.4 L 187.6 43.1 L 197.1 45.5 L 206.7 47.8 L 216.2 50.8 L 225.7 53.1 L 235.2 55.2 L 244.7 56.6 L 254.2 58.7 L 263.7 60.5 L 273.2 63.5 L 282.7 66.9 L 292.2 69.6 L 301.8 73.4 L 311.3 77.0 L 320.8 79.3 L 330.3 81.0 L 339.8 83.5 L 349.3 85.3 L 358.8 87.6 L 368.3 90.4 L 377.8 92.8 L 387.3 96.1 L 396.9 98.8 L 406.4 101.9 L 415.9 105.2 L 425.4 108.2 L 434.9 110.6 L 444.4 113.3 L 453.9 117.5 L 463.4 119.4 L 472.9 122.7 L 482.4 125.1 L 492.0 126.9 L 501.5 129.4 L 511.0 133.6 L 520.5 137.7 L 530.0 140.5" fill="none" stroke="#CCB974" stroke-width="2.4" stroke-dasharray="8 3 2 3"/>
<text x="297.0" y="388" text-anchor="middle" font-size="13" fill="#1a1a1a">Iteration</text>
<text x="18" y="188.0" text-anchor="middle" font-size="13" fill="#1a1a1a" transform="rotate(-90 18 188.0)">Best objective (mean)</text>
<line x1="544" y1="30" x2="566" y2="30" stroke="#C44E52" stroke-width="3" stroke-dasharray="none"/><text x="572" y="34" font-size="11.5" fill="#1a1a1a">c=0</text><line x1="544" y1="50" x2="566" y2="50" stroke="#4C72B0" stroke-width="3" stroke-dasharray="6 4"/><text x="572" y="54" font-size="11.5" fill="#1a1a1a">c=25</text><line x1="544" y1="70" x2="566" y2="70" stroke="#55A868" stroke-width="3" stroke-dasharray="2 3"/><text x="572" y="74" font-size="11.5" fill="#1a1a1a">c=50</text><line x1="544" y1="90" x2="566" y2="90" stroke="#8172B3" stroke-width="3" stroke-dasharray="1 4"/><text x="572" y="94" font-size="11.5" fill="#1a1a1a">c=75</text><line x1="544" y1="110" x2="566" y2="110" stroke="#CCB974" stroke-width="3" stroke-dasharray="8 3 2 3"/><text x="572" y="114" font-size="11.5" fill="#1a1a1a">c=100</text>
</svg>