<svg viewBox="0 0 400 230" xmlns="http://www.w3.org/2000/svg" font-family="Inter,Segoe UI,sans-serif">
<rect width="400" height="230" fill="#f7f9fb"/><line x1="200" y1="90" x2="270" y2="90" stroke="#cdd6df" stroke-width="1.6"/><line x1="200" y1="90" x2="249" y2="129" stroke="#cdd6df" stroke-width="1.6"/><line x1="200" y1="90" x2="200" y2="145" stroke="#cdd6df" stroke-width="1.6"/><line x1="200" y1="90" x2="151" y2="129" stroke="#cdd6df" stroke-width="1.6"/><line x1="200" y1="90" x2="130" y2="90" stroke="#cdd6df" stroke-width="1.6"/><line x1="200" y1="90" x2="151" y2="51" stroke="#cdd6df" stroke-width="1.6"/><line x1="200" y1="90" x2="200" y2="35" stroke="#cdd6df" stroke-width="1.6"/><line x1="200" y1="90" x2="249" y2="51" stroke="#cdd6df" stroke-width="1.6"/><circle cx="200" cy="90" r="7" fill="#b5462f"/><circle cx="270" cy="90" r="5" fill="#1565c0"/><circle cx="249" cy="129" r="5" fill="#1565c0"/><circle cx="200" cy="145" r="5" fill="#1565c0"/><circle cx="151" cy="129" r="5" fill="#1565c0"/><circle cx="130" cy="90" r="5" fill="#1565c0"/><circle cx="151" cy="51" r="5" fill="#1565c0"/><circle cx="200" cy="35" r="5" fill="#1565c0"/><circle cx="249" cy="51" r="5" fill="#1565c0"/><text x="200" y="205" text-anchor="middle" font-size="15" font-weight="700" fill="#16202b">Structural Bias: A Survey</text></svg>