<svg viewBox="0 0 400 230" xmlns="http://www.w3.org/2000/svg" font-family="Inter,Segoe UI,sans-serif"><rect width="400" height="230" fill="#f7f9fb"/><rect x="40" y="40" width="26" height="20" fill="#ffffff" stroke="#dfe3e8" stroke-width="1"/><rect x="72" y="40" width="26" height="20" fill="#ffffff" stroke="#dfe3e8" stroke-width="1"/><rect x="104" y="40" width="26" height="20" fill="#ffffff" stroke="#dfe3e8" stroke-width="1"/><rect x="136" y="40" width="26" height="20" fill="#ffffff" stroke="#dfe3e8" stroke-width="1"/><rect x="168" y="40" width="26" height="20" fill="#ffffff" stroke="#dfe3e8" stroke-width="1"/><rect x="200" y="40" width="26" height="20" fill="#ffffff" stroke="#dfe3e8" stroke-width="1"/><rect x="232" y="40" width="26" height="20" fill="#ffffff" stroke="#dfe3e8" stroke-width="1"/><rect x="264" y="40" width="26" height="20" fill="#ffffff" stroke="#dfe3e8" stroke-width="1"/><rect x="296" y="40" width="26" height="20" fill="#b5462f" stroke="#dfe3e8" stroke-width="1"/><rect x="328" y="40" width="26" height="20" fill="#b5462f" stroke="#dfe3e8" stroke-width="1"/><rect x="40" y="66" width="26" height="20" fill="#ffffff" stroke="#dfe3e8" stroke-width="1"/><rect x="72" y="66" width="26" height="20" fill="#ffffff" stroke="#dfe3e8" stroke-width="1"/><rect x="104" y="66" width="26" height="20" fill="#ffffff" stroke="#dfe3e8" stroke-width="1"/><rect x="136" y="66" width="26" height="20" fill="#b5462f" stroke="#dfe3e8" stroke-width="1"/><rect x="168" y="66" width="26" height="20" fill="#b5462f" stroke="#dfe3e8" stroke-width="1"/><rect x="200" y="66" width="26" height="20" fill="#b5462f" stroke="#dfe3e8" stroke-width="1"/><rect x="232" y="66" width="26" height="20" fill="#b5462f" stroke="#dfe3e8" stroke-width="1"/><rect x="264" y="66" width="26" height="20" fill="#b5462f" stroke="#dfe3e8" stroke-width="1"/><rect x="296" y="66" width="26" height="20" fill="#ffffff" stroke="#dfe3e8" stroke-width="1"/><rect x="328" y="66" width="26" height="20" fill="#ffffff" stroke="#dfe3e8" stroke-width="1"/><rect x="40" y="92" width="26" height="20" fill="#ffffff" stroke="#dfe3e8" stroke-width="1"/><rect x="72" y="92" width="26" height="20" fill="#ffffff" stroke="#dfe3e8" stroke-width="1"/><rect x="104" y="92" width="26" height="20" fill="#ffffff" stroke="#dfe3e8" stroke-width="1"/><rect x="136" y="92" width="26" height="20" fill="#b5462f" stroke="#dfe3e8" stroke-width="1"/><rect x="168" y="92" width="26" height="20" fill="#b5462f" stroke="#dfe3e8" stroke-width="1"/><rect x="200" y="92" width="26" height="20" fill="#b5462f" stroke="#dfe3e8" stroke-width="1"/><rect x="232" y="92" width="26" height="20" fill="#b5462f" stroke="#dfe3e8" stroke-width="1"/><rect x="264" y="92" width="26" height="20" fill="#b5462f" stroke="#dfe3e8" stroke-width="1"/><rect x="296" y="92" width="26" height="20" fill="#b5462f" stroke="#dfe3e8" stroke-width="1"/><rect x="328" y="92" width="26" height="20" fill="#ffffff" stroke="#dfe3e8" stroke-width="1"/><rect x="40" y="118" width="26" height="20" fill="#ffffff" stroke="#dfe3e8" stroke-width="1"/><rect x="72" y="118" width="26" height="20" fill="#ffffff" stroke="#dfe3e8" stroke-width="1"/><rect x="104" y="118" width="26" height="20" fill="#ffffff" stroke="#dfe3e8" stroke-width="1"/><rect x="136" y="118" width="26" height="20" fill="#b5462f" stroke="#dfe3e8" stroke-width="1"/><rect x="168" y="118" width="26" height="20" fill="#b5462f" stroke="#dfe3e8" stroke-width="1"/><rect x="200" y="118" width="26" height="20" fill="#b5462f" stroke="#dfe3e8" stroke-width="1"/><rect x="232" y="118" width="26" height="20" fill="#b5462f" stroke="#dfe3e8" stroke-width="1"/><rect x="264" y="118" width="26" height="20" fill="#ffffff" stroke="#dfe3e8" stroke-width="1"/><rect x="296" y="118" width="26" height="20" fill="#b5462f" stroke="#dfe3e8" stroke-width="1"/><rect x="328" y="118" width="26" height="20" fill="#ffffff" stroke="#dfe3e8" stroke-width="1"/><rect x="40" y="144" width="26" height="20" fill="#ffffff" stroke="#dfe3e8" stroke-width="1"/><rect x="72" y="144" width="26" height="20" fill="#ffffff" stroke="#dfe3e8" stroke-width="1"/><rect x="104" y="144" width="26" height="20" fill="#ffffff" stroke="#dfe3e8" stroke-width="1"/><rect x="136" y="144" width="26" height="20" fill="#b5462f" stroke="#dfe3e8" stroke-width="1"/><rect x="168" y="144" width="26" height="20" fill="#b5462f" stroke="#dfe3e8" stroke-width="1"/><rect x="200" y="144" width="26" height="20" fill="#b5462f" stroke="#dfe3e8" stroke-width="1"/><rect x="232" y="144" width="26" height="20" fill="#b5462f" stroke="#dfe3e8" stroke-width="1"/><rect x="264" y="144" width="26" height="20" fill="#ffffff" stroke="#dfe3e8" stroke-width="1"/><rect x="296" y="144" width="26" height="20" fill="#ffffff" stroke="#dfe3e8" stroke-width="1"/><rect x="328" y="144" width="26" height="20" fill="#ffffff" stroke="#dfe3e8" stroke-width="1"/><rect x="40" y="170" width="26" height="20" fill="#ffffff" stroke="#dfe3e8" stroke-width="1"/><rect x="72" y="170" width="26" height="20" fill="#b5462f" stroke="#dfe3e8" stroke-width="1"/><rect x="104" y="170" width="26" height="20" fill="#ffffff" stroke="#dfe3e8" stroke-width="1"/><rect x="136" y="170" width="26" height="20" fill="#ffffff" stroke="#dfe3e8" stroke-width="1"/><rect x="168" y="170" width="26" height="20" fill="#ffffff" stroke="#dfe3e8" stroke-width="1"/><rect x="200" y="170" width="26" height="20" fill="#ffffff" stroke="#dfe3e8" stroke-width="1"/><rect x="232" y="170" width="26" height="20" fill="#ffffff" stroke="#dfe3e8" stroke-width="1"/><rect x="264" y="170" width="26" height="20" fill="#ffffff" stroke="#dfe3e8" stroke-width="1"/><rect x="296" y="170" width="26" height="20" fill="#ffffff" stroke="#dfe3e8" stroke-width="1"/><rect x="328" y="170" width="26" height="20" fill="#ffffff" stroke="#dfe3e8" stroke-width="1"/><text x="200" y="212" text-anchor="middle" font-size="15" font-weight="700" fill="#16202b">Generalized Signature Test</text></svg>