<svg viewBox="0 0 400 230" xmlns="http://www.w3.org/2000/svg" font-family="Inter,Segoe UI,sans-serif">
<rect width="400" height="230" fill="#f7f9fb"/><circle cx="121" cy="102" r="2.6" fill="#b5462f" opacity="0.7"/><circle cx="114" cy="100" r="2.6" fill="#b5462f" opacity="0.7"/><circle cx="133" cy="101" r="2.6" fill="#b5462f" opacity="0.7"/><circle cx="142" cy="83" r="2.6" fill="#b5462f" opacity="0.7"/><circle cx="121" cy="85" r="2.6" fill="#b5462f" opacity="0.7"/><circle cx="109" cy="92" r="2.6" fill="#b5462f" opacity="0.7"/><circle cx="123" cy="101" r="2.6" fill="#b5462f" opacity="0.7"/><circle cx="127" cy="126" r="2.6" fill="#b5462f" opacity="0.7"/><circle cx="132" cy="73" r="2.6" fill="#b5462f" opacity="0.7"/><circle cx="123" cy="86" r="2.6" fill="#b5462f" opacity="0.7"/><circle cx="113" cy="113" r="2.6" fill="#b5462f" opacity="0.7"/><circle cx="117" cy="68" r="2.6" fill="#b5462f" opacity="0.7"/><circle cx="124" cy="91" r="2.6" fill="#b5462f" opacity="0.7"/><circle cx="104" cy="82" r="2.6" fill="#b5462f" opacity="0.7"/><circle cx="111" cy="95" r="2.6" fill="#b5462f" opacity="0.7"/><circle cx="114" cy="96" r="2.6" fill="#b5462f" opacity="0.7"/><circle cx="146" cy="84" r="2.6" fill="#b5462f" opacity="0.7"/><circle cx="109" cy="92" r="2.6" fill="#b5462f" opacity="0.7"/><circle cx="135" cy="85" r="2.6" fill="#b5462f" opacity="0.7"/><circle cx="140" cy="77" r="2.6" fill="#b5462f" opacity="0.7"/><circle cx="106" cy="94" r="2.6" fill="#b5462f" opacity="0.7"/><circle cx="108" cy="86" r="2.6" fill="#b5462f" opacity="0.7"/><circle cx="126" cy="105" r="2.6" fill="#b5462f" opacity="0.7"/><circle cx="122" cy="91" r="2.6" fill="#b5462f" opacity="0.7"/><circle cx="139" cy="101" r="2.6" fill="#b5462f" opacity="0.7"/><circle cx="117" cy="112" r="2.6" fill="#b5462f" opacity="0.7"/><circle cx="107" cy="97" r="2.6" fill="#b5462f" opacity="0.7"/><circle cx="129" cy="95" r="2.6" fill="#b5462f" opacity="0.7"/><circle cx="112" cy="100" r="2.6" fill="#b5462f" opacity="0.7"/><circle cx="112" cy="87" r="2.6" fill="#b5462f" opacity="0.7"/><circle cx="106" cy="113" r="2.6" fill="#b5462f" opacity="0.7"/><circle cx="112" cy="111" r="2.6" fill="#b5462f" opacity="0.7"/><circle cx="125" cy="91" r="2.6" fill="#b5462f" opacity="0.7"/><circle cx="129" cy="99" r="2.6" fill="#b5462f" opacity="0.7"/><circle cx="122" cy="76" r="2.6" fill="#b5462f" opacity="0.7"/><circle cx="121" cy="108" r="2.6" fill="#b5462f" opacity="0.7"/><circle cx="127" cy="109" r="2.6" fill="#b5462f" opacity="0.7"/><circle cx="141" cy="101" r="2.6" fill="#b5462f" opacity="0.7"/><circle cx="148" cy="74" r="2.6" fill="#b5462f" opacity="0.7"/><circle cx="117" cy="60" r="2.6" fill="#b5462f" opacity="0.7"/><circle cx="207" cy="76" r="2.6" fill="#2e7d32" opacity="0.7"/><circle cx="292" cy="120" r="2.6" fill="#2e7d32" opacity="0.7"/><circle cx="242" cy="135" r="2.6" fill="#2e7d32" opacity="0.7"/><circle cx="261" cy="124" r="2.6" fill="#2e7d32" opacity="0.7"/><circle cx="231" cy="67" r="2.6" fill="#2e7d32" opacity="0.7"/><circle cx="245" cy="62" r="2.6" fill="#2e7d32" opacity="0.7"/><circle cx="239" cy="137" r="2.6" fill="#2e7d32" opacity="0.7"/><circle cx="235" cy="51" r="2.6" fill="#2e7d32" opacity="0.7"/><circle cx="209" cy="65" r="2.6" fill="#2e7d32" opacity="0.7"/><circle cx="276" cy="83" r="2.6" fill="#2e7d32" opacity="0.7"/><circle cx="231" cy="59" r="2.6" fill="#2e7d32" opacity="0.7"/><circle cx="293" cy="88" r="2.6" fill="#2e7d32" opacity="0.7"/><circle cx="224" cy="55" r="2.6" fill="#2e7d32" opacity="0.7"/><circle cx="210" cy="65" r="2.6" fill="#2e7d32" opacity="0.7"/><circle cx="266" cy="63" r="2.6" fill="#2e7d32" opacity="0.7"/><circle cx="209" cy="94" r="2.6" fill="#2e7d32" opacity="0.7"/><circle cx="227" cy="140" r="2.6" fill="#2e7d32" opacity="0.7"/><circle cx="216" cy="98" r="2.6" fill="#2e7d32" opacity="0.7"/><circle cx="275" cy="87" r="2.6" fill="#2e7d32" opacity="0.7"/><circle cx="294" cy="93" r="2.6" fill="#2e7d32" opacity="0.7"/><circle cx="227" cy="87" r="2.6" fill="#2e7d32" opacity="0.7"/><circle cx="208" cy="88" r="2.6" fill="#2e7d32" opacity="0.7"/><circle cx="227" cy="130" r="2.6" fill="#2e7d32" opacity="0.7"/><circle cx="280" cy="95" r="2.6" fill="#2e7d32" opacity="0.7"/><circle cx="208" cy="73" r="2.6" fill="#2e7d32" opacity="0.7"/><circle cx="227" cy="69" r="2.6" fill="#2e7d32" opacity="0.7"/><circle cx="226" cy="128" r="2.6" fill="#2e7d32" opacity="0.7"/><circle cx="218" cy="55" r="2.6" fill="#2e7d32" opacity="0.7"/><circle cx="289" cy="101" r="2.6" fill="#2e7d32" opacity="0.7"/><circle cx="294" cy="86" r="2.6" fill="#2e7d32" opacity="0.7"/><circle cx="286" cy="109" r="2.6" fill="#2e7d32" opacity="0.7"/><circle cx="276" cy="117" r="2.6" fill="#2e7d32" opacity="0.7"/><circle cx="249" cy="58" r="2.6" fill="#2e7d32" opacity="0.7"/><circle cx="224" cy="129" r="2.6" fill="#2e7d32" opacity="0.7"/><circle cx="286" cy="133" r="2.6" fill="#2e7d32" opacity="0.7"/><circle cx="235" cy="109" r="2.6" fill="#2e7d32" opacity="0.7"/><circle cx="277" cy="108" r="2.6" fill="#2e7d32" opacity="0.7"/><circle cx="278" cy="98" r="2.6" fill="#2e7d32" opacity="0.7"/><circle cx="264" cy="112" r="2.6" fill="#2e7d32" opacity="0.7"/><circle cx="229" cy="133" r="2.6" fill="#2e7d32" opacity="0.7"/><path d="M 185 95 L 215 95" stroke="#16202b" stroke-width="2.4" marker-end="url(#ah)"/><defs><marker id="ah" markerWidth="8" markerHeight="8" refX="6" refY="3" orient="auto"><path d="M0,0 L6,3 L0,6 Z" fill="#16202b"/></marker></defs><text x="200" y="205" text-anchor="middle" font-size="15" font-weight="700" fill="#16202b">Regenerative Population Strategy-I</text></svg>